<svg height="134" viewBox="0 0 364 134" width="364" xmlns="http://www.w3.org/2000/svg"><g fill="none" fill-rule="evenodd" transform="translate(2 2)"><path d="m153.367707 115.524689 10.479341-31.9152699h-20.958683z" fill="#e24329"/><path d="m153.359838 115.525228-10.479341-31.9158089h-14.673772z" fill="#fc6d26"/><g transform="translate(0 .516763)"><path d="m128.202036 83.1031743-3.188802 9.6976763c-.288863.8797926.023173 1.8518257.785748 2.4009544l27.556168 19.817178z" fill="#fca326"/><path d="m128.205701 83.1031743h14.685089l-6.31994-19.2227386c-.323353-.983361-1.732634-.983361-2.067844 0z" fill="#e24329"/><path d="m153.367707 115.008465 10.479341-31.9158094h14.68509z" fill="#fc6d26"/><path d="m178.52179 83.1031743 3.188803 9.6976763c.288862.8797926-.023174 1.8518257-.785749 2.4009544l-27.556167 19.805851z" fill="#fca326"/><path d="m178.529713 83.1031743h-14.68509l6.308084-19.2227386c.323892-.983361 1.733173-.983361 2.068383 0z" fill="#e24329"/><path d="m153.367707 115.007925 10.479341-31.9152694h-20.958683z" stroke="#251b3f" stroke-linecap="round" stroke-linejoin="round" stroke-width="4"/><path d="m153.359838 115.008465-10.479341-31.9158094h-14.673772z" stroke="#251b3f" stroke-linecap="round" stroke-linejoin="round" stroke-width="4"/><path d="m128.202036 83.1031743-3.188802 9.6976763c-.288863.8797926.023173 1.8518257.785748 2.4009544l27.556168 19.817178z" stroke="#251b3f" stroke-linecap="round" stroke-linejoin="round" stroke-width="4"/><path d="m128.205701 83.1031743h14.685089l-6.31994-19.2227386c-.323353-.983361-1.732634-.983361-2.067844 0z" stroke="#251b3f" stroke-linecap="round" stroke-linejoin="round" stroke-width="4"/><path d="m153.367707 115.008465 10.479341-31.9158094h14.68509z" stroke="#251b3f" stroke-linecap="round" stroke-linejoin="round" stroke-width="4"/><path d="m178.52179 83.1031743 3.188803 9.6976763c.288862.8797926-.023174 1.8518257-.785749 2.4009544l-27.556167 19.805851z" stroke="#251b3f" stroke-linecap="round" stroke-linejoin="round" stroke-width="4"/><path d="m178.529713 83.1031743h-14.68509l6.308084-19.2227386c.323892-.983361 1.733173-.983361 2.068383 0z" stroke="#251b3f" stroke-linecap="round" stroke-linejoin="round" stroke-width="4"/><path d="m241.403066 129.460581h-2.155689v-99.2531121h9.700599c1.785449 0 3.233533 1.4494191 3.233533 3.2365145v85.2282156c0 5.958423-4.825509 10.788382-10.778443 10.788382" fill="#3d3663"/><path d="m241.403066 129.460581h-2.155689v-99.2531121h9.700599c1.785449 0 3.233533 1.4494191 3.233533 3.2365145v85.2282156c0 5.958423-4.825509 10.788382-10.778443 10.788382z" stroke="#251b3f" stroke-linecap="round" stroke-linejoin="round" stroke-width="4"/><path d="m239.247377 129.460581h-128.263473c-1.785449 0-3.233533-1.449419-3.233533-3.236515v-105.7261407c0-1.7870954 1.448084-3.2365145 3.233533-3.2365145h125.02994c1.785449 0 3.233533 1.4494191 3.233533 3.2365145z" stroke="#251b3f" stroke-linecap="round" stroke-linejoin="round" stroke-width="4"/><path d="m198.430329 93.2463029h23.69533" stroke="#000" stroke-linecap="round" stroke-linejoin="round" stroke-opacity=".3" stroke-width="4"/><path d="m198.430329 70.8751369h23.69533" stroke="#000" stroke-linecap="round" stroke-linejoin="round" stroke-opacity=".3" stroke-width="4"/><path d="m198.430329 82.0606929h23.69533" stroke="#000" stroke-linecap="round" stroke-linejoin="round" stroke-opacity=".3" stroke-width="4"/><path d="m198.430329 104.43132h8.794671" stroke="#000" stroke-linecap="round" stroke-linejoin="round" stroke-opacity=".3" stroke-width="4"/><path d="m123.116497 31.5981452c0-.9785062.516287-1.4952697 1.493892-1.4952697h2.118503c.842336 0 1.38503.2988382 1.792455 1.0060166l4.780779 8.0745643c.760958 1.2773444 1.6297 3.3163486 1.6297 3.3163486h.053893s-.217186-2.0934855-.217186-3.3163486v-7.5853112c0-.9785062.516287-1.4952697 1.494431-1.4952697h1.765509c.977605 0 1.493353.5167635 1.493353 1.4952697v16.4474274c0 .9790457-.515748 1.4958091-1.493353 1.4958091h-2.119042c-.814311 0-1.357545-.2993776-1.765509-1.006556l-4.807185-8.0470539c-.76042-1.2778838-1.629701-3.3163486-1.629701-3.3163486h-.054431s.217185 2.0934855.217185 3.3163486v7.5578008c0 .9790457-.516287 1.4958091-1.493892 1.4958091h-1.765509c-.977605 0-1.493892-.5167634-1.493892-1.4958091z" fill="#251b3f"/><path d="m144.473389 31.5981452c0-.9785062.516288-1.4952697 1.493892-1.4952697h9.181078c.977066 0 1.493354.5167635 1.493354 1.4952697v1.0874689c0 .9785062-.516288 1.4952697-1.493354 1.4952697h-5.921676v3.5342739h4.427245c.978144 0 1.494431.516224 1.494431 1.4947303v1.0880083c0 .9785062-.516287 1.4947303-1.494431 1.4947303h-4.427245v3.6707468h6.301616c.977605 0 1.493893.5162241 1.493893 1.4952698v1.0869294c0 .9790457-.516288 1.4958091-1.493893 1.4958091h-9.561018c-.977604 0-1.493892-.5167634-1.493892-1.4958091z" fill="#251b3f"/><path d="m159.559006 31.7609419c-.244132-1.0329875.244671-1.6581743 1.303653-1.6581743h1.928802c.896228 0 1.439461.4347718 1.629162 1.3323652l2.173473 10.8202074c.244132 1.1964316.244132 2.0384648.244132 2.0384648h.054431s.026946-.8420332.326048-2.0384648l2.661736-10.8471784c.217725-.8706224.760419-1.3053942 1.657186-1.3053942h1.167844c.896228 0 1.438922.4347718 1.629701 1.3053942l2.607305 10.8471784c.299102 1.1964316.325509 2.0384648.325509 2.0384648h.05497s0-.8420332.244132-2.0384648l2.363173-10.8471784c.189701-.8706224.733474-1.3053942 1.656647-1.3053942h1.847425c1.058982 0 1.547785.6251868 1.303653 1.6581743l-4.183114 16.5024481c-.217185.870083-.760419 1.2778839-1.656646 1.2778839h-2.634791c-.896227 0-1.439461-.4353112-1.656647-1.3048548l-2.119041-8.5093361c-.298563-1.2509129-.379941-2.2839004-.379941-2.2839004h-.054431s-.081377 1.0329875-.37994 2.2839004l-2.119042 8.5093361c-.217185.8695436-.760419 1.3048548-1.656646 1.3048548h-2.689222c-.896228 0-1.439461-.4353112-1.656647-1.3048548z" fill="#251b3f"/><path d="m187.435078 45.8711743.841796-1.2239419c.543234-.7875519 1.167845-.8425726 2.064611-.3533195.624611.3268879 1.846886 1.1964315 3.530479 1.1964315 1.412515 0 2.064611-.5976764 2.064611-1.3593361 0-2.7456432-8.582874-2.3108714-8.582874-8.4009129 0-3.5882157 2.987784-5.9535684 6.926227-5.9535684 2.254312 0 4.318383.7886307 5.242096 1.4407884.787904.5712448.869281 1.2503734.461856 2.0390041l-.652096 1.2778838c-.543233 1.0599585-1.276706.897054-2.037125.5162241-.896228-.4347718-1.792455-.897054-3.069162-.897054-1.493892 0-2.118503.5982158-2.118503 1.3598756 0 2.8270954 8.582874 2.1474273 8.582874 8.2914108 0 3.262946-2.444012 6.0625311-6.817904 6.0625311-2.715629 0-5.133233-1.1144399-6.165269-1.9300415-.570719-.4617428-.978144-1.0604979-.271617-2.0659751" fill="#251b3f"/><g stroke-linecap="round" stroke-linejoin="round" stroke-width="4"><path d="m322.133497.08479668h-40.742515c-2.142754 0-3.880239 1.73908714-3.880239 3.88381743v26.21576759c0 2.1447303 1.737485 3.8838175 3.880239 3.8838175h5.508862l6.374372 6.3802489 6.374371-6.3802489h22.48491c2.143293 0 3.88024-1.7390872 3.88024-3.8838175v-26.21576759c0-2.14473029-1.736947-3.88381743-3.88024-3.88381743z" stroke="#251b3f"/><path d="m285.998874 12.7068797h19.401198" stroke="#fca326"/><path d="m285.998874 21.4455768h9.700599" stroke="#000" stroke-opacity=".3"/><path d="m315.343293 19.5038838h40.742515c2.142755 0 3.88024 1.7390872 3.88024 3.8838174v26.2157677c0 2.1447303-1.737485 3.8838174-3.88024 3.8838174h-5.508862l-6.374371 6.380249-6.374371-6.380249h-22.484911c-2.143293 0-3.880239-1.7390871-3.880239-3.8838174v-26.2157677c0-2.1447302 1.736946-3.8838174 3.880239-3.8838174z" stroke="#251b3f"/><path d="m351.477916 40.8646639h-19.401197" stroke="#fc6d26"/><path d="m351.477916 32.1259668h-9.700599" stroke="#000" stroke-opacity=".3"/><path d="m274.81624 92.2406639h7.954491" stroke="#fc6d26"/><path d="m292.191198 92.2406639h25.379461" stroke="#000" stroke-opacity=".3"/><path d="m292.406443 107.732618h49.322695" stroke="#251b3f" stroke-opacity=".3"/><path d="m10.5790958 59.8586888 12.7961677-5.436805-8.6082036-20.2983402-12.79616768 5.4368049c-1.64371258.6985478-2.41059881 2.5983818-1.71269461 4.24361l6.0811976 14.339917c.69790419 1.6457677 2.5954491 2.413361 4.23970059 1.7148133z" stroke="#251b3f"/></g><path d="m23.3753713 54.4217759 9.013473-3.8293361-8.6082036-20.2983402-9.013473 3.8293361z" fill="#e24329"/><path d="m23.3753713 54.4217759 9.013473-3.8293361-8.6082036-20.2983402-9.013473 3.8293361z" stroke="#251b3f" stroke-linecap="round" stroke-linejoin="round" stroke-width="4"/><path d="m25.1137186 72.315332 6.1070658-2.5946059c1.1479042-.4876348 1.5542515-1.9106224.8374851-2.9312033l-8.6831138-12.3678008-6.7597006 2.8718672 5.9302994 13.983361c.4230539.9968465 1.5720359 1.4612863 2.5679641 1.0383818" fill="#3d3663"/><path d="m25.1137186 72.315332 6.1070658-2.5946059c1.1479042-.4876348 1.5542515-1.9106224.8374851-2.9312033l-8.6831138-12.3678008-6.7597006 2.8718672 5.9302994 13.983361c.4230539.9968465 1.5720359 1.4612863 2.5679641 1.0383818z" stroke="#251b3f" stroke-linecap="round" stroke-linejoin="round" stroke-width="4"/><path d="m32.3886287 50.5926556 22.0931138 1.3776764c2.3992815.149419 4.1168264-2.2801245 3.178024-4.4949793l-14.0841916-33.2109544c-.9393414-2.2148547-3.8786228-2.6658091-5.4377246-.8350207l-14.3574252 16.8649378z" stroke="#251b3f" stroke-linecap="round" stroke-linejoin="round" stroke-width="4"/><path d="m61.8835689 26.0833402 13.5199401-5.7442738" stroke="#000" stroke-linecap="round" stroke-linejoin="round" stroke-opacity=".3" stroke-width="4"/><path d="m63.6608802 32.7813071 6.9380839 1.3107883" stroke="#251b3f" stroke-linecap="round" stroke-linejoin="round" stroke-width="4"/><path d="m58.3042635 20.1507552 3.8775449-5.9060996" stroke="#251b3f" stroke-linecap="round" stroke-linejoin="round" stroke-width="4"/><path d="m62.1593353 39.274888 18.3023354 5.5328215" stroke="#000" stroke-linecap="round" stroke-linejoin="round" stroke-opacity=".3" stroke-width="4"/><path d="m52.5950299 16.7209129 8.737545-16.6982573" stroke="#000" stroke-linecap="round" stroke-linejoin="round" stroke-opacity=".3" stroke-width="4"/><path d="m13.2447665 92.1221535h63.3346706" stroke="#251b3f" stroke-linecap="round" stroke-linejoin="round" stroke-width="4"/><path d="m37.281018 108.002867h32.7233533" stroke="#000" stroke-linecap="round" stroke-linejoin="round" stroke-opacity=".3" stroke-width="4"/><path d="m80.028 108.002867h8.7952096" stroke="#fc6d26" stroke-linecap="round" stroke-linejoin="round" stroke-width="4"/></g></g></svg>